# xmcd
#
# Track frame offsets:
# 150
# 21961
# 34629
# 50128
# 68138
# 84870
# 99507
# 116646
# 130427
# 142598
# 159676
# 177573
# 191227
# 208922
#
# Disc length: 2984 seconds
#
#
# Revision: 0
# Processed by: cddbd v1.5.2PL0 Copyright (c) Steve Scherf et al.
# Submitted via: FreeRIP 2.951 
#
DISCID=ca0ba60e
DTITLE=Vários - Rodeio Internacional
DYEAR=2006
DGENRE=Country
TTITLE0=Burnin' the honky tonks down - Alan Jackson
TTITLE1=I'm in a hurry (and don't know why) - Alabama
TTITLE2=Happy girl - Martina Mcbride
TTITLE3=Havin' a good time - Tommy Shane Steiner
TTITLE4=XXL - Keith Anderson
TTITLE5=Play something country - Brooks and Dunn
TTITLE6=Simple life - Carolyn Dawn Johnson
TTITLE7=Good ole days - Phil Vassar
TTITLE8=Started a band - Bobby Pinson
TTITLE9=Live those songs - Kenny Chesney
TTITLE10=Rockin' horse - Sara Evans
TTITLE11=Yessireebob - Blaine Larsen
TTITLE12=Time warp - Brad Paisley
TTITLE13=Take me home, country roads - Happening
EXTD=
EXTT0=
EXTT1=
EXTT2=
EXTT3=
EXTT4=
EXTT5=
EXTT6=
EXTT7=
EXTT8=
EXTT9=
EXTT10=
EXTT11=
EXTT12=
EXTT13=
PLAYORDER=
